<svg width="24" height="25" viewBox="0 0 24 25" fill="none" xmlns="http://www.w3.org/2000/svg">
<g id="Icons/Github">
<path id="Vector" d="M12 3.5C7.0275 3.5 3 7.63211 3 12.7284C3 16.8065 5.5785 20.2648 9.15375 21.4841C9.60375 21.5709 9.76875 21.2853 9.76875 21.0403C9.76875 20.8212 9.76125 20.2405 9.7575 19.4712C7.254 20.0277 6.726 18.2332 6.726 18.2332C6.3165 17.1681 5.72475 16.8832 5.72475 16.8832C4.9095 16.3111 5.78775 16.3229 5.78775 16.3229C6.6915 16.387 7.16625 17.2737 7.16625 17.2737C7.96875 18.6847 9.273 18.277 9.7875 18.0414C9.8685 17.4443 10.1003 17.0381 10.3575 16.8073C8.35875 16.5764 6.258 15.7829 6.258 12.2471C6.258 11.2399 6.60675 10.4166 7.18425 9.77095C7.083 9.53774 6.77925 8.5994 7.263 7.32846C7.263 7.32846 8.01675 7.08116 9.738 8.27462C10.458 8.06958 11.223 7.96785 11.988 7.96315C12.753 7.96785 13.518 8.06958 14.238 8.27462C15.948 7.08116 16.7017 7.32846 16.7017 7.32846C17.1855 8.5994 16.8818 9.53774 16.7917 9.77095C17.3655 10.4166 17.7142 11.2399 17.7142 12.2471C17.7142 15.7923 15.6105 16.5725 13.608 16.7995C13.923 17.0765 14.2155 17.6423 14.2155 18.5071C14.2155 19.742 14.2043 20.7344 14.2043 21.0341C14.2043 21.2759 14.3617 21.5647 14.823 21.4723C18.4237 20.2609 21 16.8002 21 12.7284C21 7.63211 16.9703 3.5 12 3.5Z" fill="#272727"/>
</g>
</svg>
