<svg width="24" height="25" viewBox="0 0 24 25" fill="none" xmlns="http://www.w3.org/2000/svg">
<g id="Icons/Instagram">
<path id="Mask" fill-rule="evenodd" clip-rule="evenodd" d="M7.60045 2.68182H16.399C19.3871 2.68182 21.8181 5.11282 21.818 8.10075V16.8993C21.818 19.8872 19.3871 22.3182 16.399 22.3182H7.60045C4.61252 22.3182 2.18164 19.8873 2.18164 16.8993V8.10075C2.18164 5.11282 4.61252 2.68182 7.60045 2.68182ZM16.3991 20.576C18.4265 20.576 20.0759 18.9266 20.0759 16.8993H20.0758V8.10075C20.0758 6.07349 18.4263 4.42406 16.399 4.42406H7.60045C5.57319 4.42406 3.92387 6.07349 3.92387 8.10075V16.8993C3.92387 18.9266 5.57319 20.5761 7.60045 20.576H16.3991ZM6.85696 12.5001C6.85696 9.66424 9.16401 7.35715 11.9998 7.35715C14.8356 7.35715 17.1427 9.66424 17.1427 12.5001C17.1427 15.3359 14.8356 17.6429 11.9998 17.6429C9.16401 17.6429 6.85696 15.3359 6.85696 12.5001ZM8.6278 12.5C8.6278 14.3593 10.1406 15.8719 11.9998 15.8719C13.8591 15.8719 15.3718 14.3593 15.3718 12.5C15.3718 10.6406 13.8592 9.12791 11.9998 9.12791C10.1404 9.12791 8.6278 10.6406 8.6278 12.5Z" fill="#272727"/>
<mask id="mask0_10_468" style="mask-type:luminance" maskUnits="userSpaceOnUse" x="2" y="2" width="20" height="21">
<path id="Mask_2" fill-rule="evenodd" clip-rule="evenodd" d="M7.60045 2.68182H16.399C19.3871 2.68182 21.8181 5.11282 21.818 8.10075V16.8993C21.818 19.8872 19.3871 22.3182 16.399 22.3182H7.60045C4.61252 22.3182 2.18164 19.8873 2.18164 16.8993V8.10075C2.18164 5.11282 4.61252 2.68182 7.60045 2.68182ZM16.3991 20.576C18.4265 20.576 20.0759 18.9266 20.0759 16.8993H20.0758V8.10075C20.0758 6.07349 18.4263 4.42406 16.399 4.42406H7.60045C5.57319 4.42406 3.92387 6.07349 3.92387 8.10075V16.8993C3.92387 18.9266 5.57319 20.5761 7.60045 20.576H16.3991ZM6.85696 12.5001C6.85696 9.66424 9.16401 7.35715 11.9998 7.35715C14.8356 7.35715 17.1427 9.66424 17.1427 12.5001C17.1427 15.3359 14.8356 17.6429 11.9998 17.6429C9.16401 17.6429 6.85696 15.3359 6.85696 12.5001ZM8.6278 12.5C8.6278 14.3593 10.1406 15.8719 11.9998 15.8719C13.8591 15.8719 15.3718 14.3593 15.3718 12.5C15.3718 10.6406 13.8592 9.12791 11.9998 9.12791C10.1404 9.12791 8.6278 10.6406 8.6278 12.5Z" fill="white"/>
</mask>
<g mask="url(#mask0_10_468)">
</g>
</g>
</svg>
