<svg width="18" height="19" viewBox="0 0 18 19" fill="none" xmlns="http://www.w3.org/2000/svg">
<g id="Group">
<g id="post linkedin">
<path id="Vector" d="M16.2 0.5H1.8C0.81 0.5 0 1.31 0 2.3V16.7C0 17.69 0.81 18.5 1.8 18.5H16.2C17.19 18.5 18 17.69 18 16.7V2.3C18 1.31 17.19 0.5 16.2 0.5ZM5.4 15.8H2.7V7.7H5.4V15.8ZM4.05 6.17C3.15 6.17 2.43 5.45 2.43 4.55C2.43 3.65 3.15 2.93 4.05 2.93C4.95 2.93 5.67 3.65 5.67 4.55C5.67 5.45 4.95 6.17 4.05 6.17ZM15.3 15.8H12.6V11.03C12.6 10.31 11.97 9.68 11.25 9.68C10.53 9.68 9.9 10.31 9.9 11.03V15.8H7.2V7.7H9.9V8.78C10.35 8.06 11.34 7.52 12.15 7.52C13.86 7.52 15.3 8.96 15.3 10.67V15.8Z" fill="#272727"/>
</g>
</g>
</svg>
