<svg width="24" height="25" viewBox="0 0 24 25" fill="none" xmlns="http://www.w3.org/2000/svg">
<g id="Icons/Twitter">
<path id="Shape" fill-rule="evenodd" clip-rule="evenodd" d="M21.8184 6.64598C21.1358 6.94844 20.4034 7.15356 19.6339 7.24513C20.4196 6.77462 21.0211 6.02831 21.3061 5.14177C20.5691 5.5775 19.7556 5.89389 18.8887 6.06541C18.1946 5.32489 17.2072 4.86365 16.112 4.86365C14.011 4.86365 12.3075 6.56719 12.3075 8.66707C12.3075 8.96489 12.3411 9.25577 12.406 9.53392C9.24459 9.37513 6.44128 7.8605 4.56507 5.55895C4.2371 6.11986 4.05053 6.77344 4.05053 7.4711C4.05053 8.79107 4.72268 9.95574 5.74249 10.6371C5.11901 10.6163 4.53262 10.4448 4.01925 10.1597V10.2072C4.01925 12.0498 5.3311 13.5876 7.07056 13.9376C6.75186 14.0234 6.4158 14.0709 6.06813 14.0709C5.82246 14.0709 5.58489 14.0466 5.35195 14.0002C5.83634 15.5125 7.24092 16.6123 8.90507 16.6424C7.60365 17.6623 5.96268 18.2683 4.18034 18.2683C3.87325 18.2683 3.57077 18.2498 3.27295 18.2162C4.9568 19.2974 6.95586 19.9279 9.1044 19.9279C16.1028 19.9279 19.9283 14.1312 19.9283 9.10398L19.9155 8.61147C20.663 8.07834 21.3096 7.40853 21.8184 6.64598Z" fill="#272727"/>
<mask id="mask0_10_467" style="mask-type:luminance" maskUnits="userSpaceOnUse" x="3" y="4" width="19" height="16">
<path id="Shape_2" fill-rule="evenodd" clip-rule="evenodd" d="M21.8184 6.64598C21.1358 6.94844 20.4034 7.15356 19.6339 7.24513C20.4196 6.77462 21.0211 6.02831 21.3061 5.14177C20.5691 5.5775 19.7556 5.89389 18.8887 6.06541C18.1946 5.32489 17.2072 4.86365 16.112 4.86365C14.011 4.86365 12.3075 6.56719 12.3075 8.66707C12.3075 8.96489 12.3411 9.25577 12.406 9.53392C9.24459 9.37513 6.44128 7.8605 4.56507 5.55895C4.2371 6.11986 4.05053 6.77344 4.05053 7.4711C4.05053 8.79107 4.72268 9.95574 5.74249 10.6371C5.11901 10.6163 4.53262 10.4448 4.01925 10.1597V10.2072C4.01925 12.0498 5.3311 13.5876 7.07056 13.9376C6.75186 14.0234 6.4158 14.0709 6.06813 14.0709C5.82246 14.0709 5.58489 14.0466 5.35195 14.0002C5.83634 15.5125 7.24092 16.6123 8.90507 16.6424C7.60365 17.6623 5.96268 18.2683 4.18034 18.2683C3.87325 18.2683 3.57077 18.2498 3.27295 18.2162C4.9568 19.2974 6.95586 19.9279 9.1044 19.9279C16.1028 19.9279 19.9283 14.1312 19.9283 9.10398L19.9155 8.61147C20.663 8.07834 21.3096 7.40853 21.8184 6.64598Z" fill="white"/>
</mask>
<g mask="url(#mask0_10_467)">
</g>
</g>
</svg>
